<svg width="63" height="55" viewBox="0 0 63 55" fill="none" xmlns="http://www.w3.org/2000/svg">
<g filter="url(#filter0_d_16_780)">
<path d="M60.2915 19.8515C60.2991 20.0667 60.299 20.2832 60.2915 20.5004V19.8515C60.177 16.6318 58.322 13.7255 53.5165 13.7255H9.78622C5.97448 13.7255 3.01129 15.1636 3.01129 20.5004V8.22003C3.01129 5.94489 3.95007 2.99994 9.78622 2.99994H24.8343C31.0479 2.99994 30.0384 8.22003 31.6092 8.22003H53.5165C57.5351 8.22003 60.2915 9.97932 60.2915 14.995V19.8515Z" fill="#34ADF3"/>
<path d="M53.5165 13.7255C58.6431 13.7255 60.4117 17.0331 60.2915 20.5004C60.2915 20.7551 60.2915 20.0106 60.2915 14.995C60.2915 9.97932 57.5351 8.22003 53.5165 8.22003C48.345 8.22003 36.7233 8.22003 31.6092 8.22003C30.0384 8.22003 31.0479 2.99994 24.8343 2.99994C22.25 2.99994 15.6224 2.99994 9.78622 2.99994C3.95007 2.99994 3.01129 5.94489 3.01129 8.22003V20.5004C3.01129 15.1636 5.97448 13.7255 9.78622 13.7255M53.5165 13.7255C48.39 13.7255 22.2269 13.7255 9.78622 13.7255M53.5165 13.7255H9.78622" stroke="#2698DA" stroke-width="0.447546"/>
<path d="M53.5165 13.7255C58.6431 13.7255 60.4117 17.0331 60.2915 20.5004C60.2915 20.7551 60.2915 20.0106 60.2915 14.995C60.2915 9.97932 57.5351 8.22003 53.5165 8.22003C48.345 8.22003 36.7233 8.22003 31.6092 8.22003C30.0384 8.22003 31.0479 2.99994 24.8343 2.99994C22.25 2.99994 15.6224 2.99994 9.78622 2.99994C3.95007 2.99994 3.01129 5.94489 3.01129 8.22003V20.5004C3.01129 15.1636 5.97448 13.7255 9.78622 13.7255M53.5165 13.7255C48.39 13.7255 22.2269 13.7255 9.78622 13.7255M53.5165 13.7255H9.78622" stroke="url(#paint0_linear_16_780)" stroke-width="0.447546"/>
<path d="M9.7749 53.0202C4.24197 53.0202 2.99997 49.6503 2.99997 46.2453V20.5006C2.99997 15.1638 5.96316 13.7256 9.7749 13.7256H53.5052C58.6318 13.7256 60.4004 17.0333 60.2802 20.5006V46.2453C60.2802 51.5853 57.4201 53.0202 53.5052 53.0202H9.7749Z" fill="#34ADF3"/>
<path d="M53.5052 13.7256C58.6318 13.7256 60.4004 17.0333 60.2802 20.5006C60.2802 26.8572 60.2802 40.9053 60.2802 46.2453C60.2802 51.5853 57.4201 53.0202 53.5052 53.0202C41.2338 53.0202 15.3078 53.0202 9.7749 53.0202C4.24197 53.0202 2.99997 49.6503 2.99997 46.2453V20.5006C2.99997 15.1638 5.96316 13.7256 9.7749 13.7256M53.5052 13.7256C48.3786 13.7256 22.2156 13.7256 9.7749 13.7256M53.5052 13.7256H9.7749" stroke="#2698DA" stroke-width="0.447546"/>
<path d="M53.5052 13.7256C58.6318 13.7256 60.4004 17.0333 60.2802 20.5006C60.2802 26.8572 60.2802 40.9053 60.2802 46.2453C60.2802 51.5853 57.4201 53.0202 53.5052 53.0202C41.2338 53.0202 15.3078 53.0202 9.7749 53.0202C4.24197 53.0202 2.99997 49.6503 2.99997 46.2453V20.5006C2.99997 15.1638 5.96316 13.7256 9.7749 13.7256M53.5052 13.7256C48.3786 13.7256 22.2156 13.7256 9.7749 13.7256M53.5052 13.7256H9.7749" stroke="url(#paint1_linear_16_780)" stroke-width="0.447546"/>
<path d="M9.54337 22.7481V20.5617C9.54337 20.0674 9.94411 19.6666 10.4385 19.6666H28.7299C29.2243 19.6666 29.625 20.0674 29.625 20.5617V22.7481C29.625 23.2424 29.2243 23.6432 28.7299 23.6432H10.4385C9.94411 23.6432 9.54337 23.2424 9.54337 22.7481Z" fill="#2393D4" stroke="#2698DA" stroke-width="0.447546"/>
<g filter="url(#filter1_d_16_780)">
<path d="M9.85617 48.2146H53.4297" stroke="#2698DA" stroke-width="0.447546"/>
</g>
</g>
<defs>
<filter id="filter0_d_16_780" x="0.985999" y="0.538452" width="61.3251" height="54.0482" filterUnits="userSpaceOnUse" color-interpolation-filters="sRGB">
<feFlood flood-opacity="0" result="BackgroundImageFix"/>
<feColorMatrix in="SourceAlpha" type="matrix" values="0 0 0 0 0 0 0 0 0 0 0 0 0 0 0 0 0 0 127 0" result="hardAlpha"/>
<feOffset dy="-0.447546"/>
<feGaussianBlur stdDeviation="0.895093"/>
<feComposite in2="hardAlpha" operator="out"/>
<feColorMatrix type="matrix" values="0 0 0 0 0 0 0 0 0 0 0 0 0 0 0 0 0 0 0.25 0"/>
<feBlend mode="normal" in2="BackgroundImageFix" result="effect1_dropShadow_16_780"/>
<feBlend mode="normal" in="SourceGraphic" in2="effect1_dropShadow_16_780" result="shape"/>
</filter>
<filter id="filter1_d_16_780" x="8.37927" y="46.5139" width="46.5274" height="3.40132" filterUnits="userSpaceOnUse" color-interpolation-filters="sRGB">
<feFlood flood-opacity="0" result="BackgroundImageFix"/>
<feColorMatrix in="SourceAlpha" type="matrix" values="0 0 0 0 0 0 0 0 0 0 0 0 0 0 0 0 0 0 127 0" result="hardAlpha"/>
<feOffset/>
<feGaussianBlur stdDeviation="0.738451"/>
<feComposite in2="hardAlpha" operator="out"/>
<feColorMatrix type="matrix" values="0 0 0 0 0 0 0 0 0 0 0 0 0 0 0 0 0 0 0.25 0"/>
<feBlend mode="normal" in2="BackgroundImageFix" result="effect1_dropShadow_16_780"/>
<feBlend mode="normal" in="SourceGraphic" in2="effect1_dropShadow_16_780" result="shape"/>
</filter>
<linearGradient id="paint0_linear_16_780" x1="31.6542" y1="2.99994" x2="31.6542" y2="20.5438" gradientUnits="userSpaceOnUse">
<stop offset="0.44462" stop-color="#7DCFFF"/>
<stop offset="1" stop-color="#34ADF3"/>
</linearGradient>
<linearGradient id="paint1_linear_16_780" x1="31.6429" y1="13.7256" x2="31.6429" y2="53.0202" gradientUnits="userSpaceOnUse">
<stop stop-color="#7DCFFF"/>
<stop offset="1" stop-color="#2698DA"/>
</linearGradient>
</defs>
</svg>

