<svg width="180" height="193" viewBox="0 0 180 193" fill="none" xmlns="http://www.w3.org/2000/svg">
<g filter="url(#filter0_d_16_807)">
<rect x="44.283" y="5.42261" width="136.641" height="155.641" rx="11.1406" transform="rotate(15 44.283 5.42261)" fill="#F7F7F7"/>
<rect x="44.7753" y="6.27538" width="135.249" height="154.249" rx="10.4443" transform="rotate(15 44.7753 6.27538)" stroke="url(#paint0_linear_16_807)" stroke-width="1.39257"/>
</g>
<path d="M58.3113 32.0793L150.791 56.8592" stroke="#E7E5E5" stroke-width="2.78515" stroke-linecap="round"/>
<path d="M55.4279 42.8403L147.907 67.6202" stroke="#E7E5E5" stroke-width="2.78515" stroke-linecap="round"/>
<path d="M52.5445 53.6013L145.024 78.3811" stroke="#E7E5E5" stroke-width="2.78515" stroke-linecap="round"/>
<path d="M49.6611 64.3623L142.141 89.1421" stroke="#E7E5E5" stroke-width="2.78515" stroke-linecap="round"/>
<path d="M46.7776 75.1234L139.257 99.9032" stroke="#E7E5E5" stroke-width="2.78515" stroke-linecap="round"/>
<path d="M43.8943 85.8844L136.374 110.664" stroke="#E7E5E5" stroke-width="2.78515" stroke-linecap="round"/>
<path d="M41.0109 96.6453L133.49 121.425" stroke="#E7E5E5" stroke-width="2.78515" stroke-linecap="round"/>
<path d="M38.1275 107.406L130.607 132.186" stroke="#E7E5E5" stroke-width="2.78515" stroke-linecap="round"/>
<path d="M35.2441 118.167L127.724 142.947" stroke="#E7E5E5" stroke-width="2.78515" stroke-linecap="round"/>
<path d="M32.3607 128.928L124.84 153.708" stroke="#E7E5E5" stroke-width="2.78515" stroke-linecap="round"/>
<path d="M29.4773 139.689L121.957 164.469" stroke="#E7E5E5" stroke-width="2.78515" stroke-linecap="round"/>
<path d="M110.654 67.5907L109.995 59.4946L100.452 56.0274L94.653 61.7771M110.654 67.5907L108.104 64.6998L98.5608 61.2327L94.653 61.7771M110.654 67.5907L109.825 70.3596M94.653 61.7771L93.5115 64.4326M109.825 70.3596L106.558 81.2696L102.861 84.8369L98.8658 86.2224L91.6362 83.5958L89.2693 79.8989L89.0138 74.8957L93.5115 64.4326M109.825 70.3596C112.833 72.8297 118.884 79.6591 119.019 87.2156M119.019 87.2156L142.116 84.9133L121.806 91.4106M119.019 87.2156L99.9547 90.1229M97.667 99.1329L96.937 101.142L87.9648 105.187M97.667 99.1329L97.4812 96.791M97.667 99.1329L102.049 97.7312M87.9648 105.187L83.3454 96.204L84.0754 94.1949M87.9648 105.187L89.6493 100.55M84.0754 94.1949L85.7028 92.5117M84.0754 94.1949L81.4734 90.0715M88.1314 85.8273L89.592 84.2148L99.5556 88.2283L99.9547 90.1229M88.1314 85.8273L88.5813 86.9967L87.2055 90.7833L85.7028 92.5117M88.1314 85.8273L74.7476 71.4848M99.9547 90.1229L98.5448 91.0103L97.2955 94.4491L97.4812 96.791M97.4812 96.791L89.6493 100.55M89.6493 100.55L85.7028 92.5117M74.7476 71.4848L59.2944 54.9245L70.5724 72.7967M74.7476 71.4848C78.5465 68.3608 87.6176 62.5769 93.5115 64.4326M78.9973 72.6751C80.1431 71.7883 82.6722 69.991 83.6217 69.8967M70.5724 72.7967C68.7185 73.5453 64.4816 76.3857 62.3645 81.7582M70.5724 72.7967L72.0831 75.1908M62.3645 81.7582C60.2473 87.1306 56.1597 95.9938 54.3805 99.7539C53.8868 103.671 53.2627 111.927 54.7162 113.612M62.3645 81.7582L62.6451 86.9552M54.7162 113.612L59.1246 101.477M54.7162 113.612L57.5857 116.071M59.1246 101.477L59.0984 96.7172M59.1246 101.477L64.692 102.949M59.0984 96.7172L62.6451 86.9552M59.0984 96.7172L64.6391 97.805M62.6451 86.9552L67.2068 88.6126M67.2068 88.6126C67.4244 85.7759 68.7043 79.1202 72.0831 75.1908M67.2068 88.6126C67.8085 89.6716 68.6721 91.025 69.7604 92.5315M67.2068 88.6126L64.6391 97.805M72.0831 75.1908L74.8601 79.5914M114.368 105.2C115.824 102.996 118.81 97.3242 119.105 92.2746M114.368 105.2C114.122 105.32 113.858 105.444 113.579 105.57M114.368 105.2L118.731 107.442M119.105 92.2746L114.141 93.8627M119.105 92.2746L121.806 91.4106M109.177 95.4508C109.048 97.2789 109.811 100.685 113.892 99.6872C117.973 98.6889 115.758 95.3882 114.141 93.8627M109.177 95.4508L114.141 93.8627M109.177 95.4508L102.049 97.7312M77.6371 83.9921C77.0471 84.8827 75.2284 86.4318 72.6739 85.5037C69.4807 84.3436 70.7606 78.831 74.8601 79.5914M77.6371 83.9921L74.8601 79.5914M77.6371 83.9921L81.4734 90.0715M81.4734 90.0715C79.2794 90.2084 73.8652 90.892 69.7604 92.5315M69.7604 92.5315C70.2085 93.1517 70.6946 93.7979 71.2162 94.4601M109.736 107.055C108.096 104.255 104.263 98.4709 102.049 97.7312M109.736 107.055C111.209 106.565 112.512 106.05 113.579 105.57M109.736 107.055C108.931 107.323 108.075 107.583 107.179 107.827M64.6391 97.805L64.692 102.949M64.692 102.949L59.3691 117.6L57.5857 116.071M57.5857 116.071C58.068 118.486 59.9847 123.546 63.7928 124.474L65.5999 119.864M70.3861 107.651L65.5999 119.864M70.3861 107.651L69.0837 99.8229L71.2162 94.4601M70.3861 107.651L70.8933 104.931L74.7711 111.451M65.5999 119.864C67.0222 123.441 70.2018 130.775 71.5418 131.489M71.5418 131.489L72.1363 136.474M71.5418 131.489C71.269 127.641 71.5329 118.247 74.7711 111.451M71.5418 131.489L78.1126 122.312L84.0243 124.46L83.0946 135.686M72.1363 136.474L73.1497 138.052L78.3937 139.958L79.9517 139.314M72.1363 136.474L74.2868 132.842L80.6136 135.141L79.9517 139.314M79.9517 139.314L83.0946 135.686M83.0946 135.686C85.3218 133.791 90.5352 127.656 93.5719 118.282M83.0946 135.686C86.1216 135.045 92.7297 133.115 94.9459 130.525M93.5719 118.282L100.619 115.73L99.8402 117.872L105.244 113.151L107.179 107.827M93.5719 118.282L85.3482 112.389L74.7711 111.451M94.9459 130.525C95.9255 127.829 98.4418 120.903 99.5776 117.777M94.9459 130.525L93.2554 135.178C94.1012 136.026 97.3135 136.895 103.397 133.596M103.397 133.596L101.507 132.909L106.83 118.258M103.397 133.596L107.601 132.513M106.83 118.258L110.462 114.149M106.83 118.258L112.006 120.387M110.462 114.149L113.579 105.57M110.462 114.149L115.34 116.776M118.731 107.442L115.34 116.776M118.731 107.442L122.437 103.583M115.34 116.776L112.006 120.387M112.006 120.387L107.601 132.513M107.601 132.513C109.63 131.685 114.304 128.446 116.763 122.115C118.848 115.659 121.414 107.07 122.437 103.583M122.437 103.583C123.267 100.331 124.303 93.3428 121.806 91.4106M78.823 117.511C80.0304 117.328 83.2598 117.632 86.5178 120.307M87.8362 116.678C86.5185 115.768 83.1348 113.935 80.1414 113.882M71.2162 94.4601C71.9837 95.4344 72.8279 96.4436 73.7408 97.4562M73.7408 97.4562L73.0364 99.3952L75.2823 104.433L80.9274 106.484L83.3313 105.66M73.7408 97.4562C76.4173 100.425 79.6835 103.424 83.3313 105.66M83.3313 105.66C84.543 106.403 85.7968 107.062 87.085 107.608C88.3549 108.146 89.6782 108.543 91.0302 108.821M91.0302 108.821L91.9487 110.488L97.7282 112.588L102.527 110.477L103.161 108.732M91.0302 108.821C95.0344 109.643 99.291 109.421 103.161 108.732M103.161 108.732C104.561 108.482 105.91 108.171 107.179 107.827M85.7749 68.9202C86.2897 68.5509 87.5672 67.8555 88.5585 68.0283M97.135 67.6666L95.2352 68.6822L91.3253 78.24L92.8155 81.8431L98.7272 83.9909L102.351 82.6833L105.706 72.4864L104.619 70.3858L97.135 67.6666Z" stroke="#383535" stroke-width="1.22005" stroke-linecap="round"/>
<defs>
<filter id="filter0_d_16_807" x="0.930738" y="0.960709" width="178.407" height="191.842" filterUnits="userSpaceOnUse" color-interpolation-filters="sRGB">
<feFlood flood-opacity="0" result="BackgroundImageFix"/>
<feColorMatrix in="SourceAlpha" type="matrix" values="0 0 0 0 0 0 0 0 0 0 0 0 0 0 0 0 0 0 127 0" result="hardAlpha"/>
<feOffset dy="-1.39257"/>
<feGaussianBlur stdDeviation="2.78515"/>
<feComposite in2="hardAlpha" operator="out"/>
<feColorMatrix type="matrix" values="0 0 0 0 0 0 0 0 0 0 0 0 0 0 0 0 0 0 0.25 0"/>
<feBlend mode="normal" in2="BackgroundImageFix" result="effect1_dropShadow_16_807"/>
<feBlend mode="normal" in="SourceGraphic" in2="effect1_dropShadow_16_807" result="shape"/>
</filter>
<linearGradient id="paint0_linear_16_807" x1="112.604" y1="5.42261" x2="112.604" y2="161.064" gradientUnits="userSpaceOnUse">
<stop offset="0.503505" stop-color="#FDFDFD"/>
<stop offset="1" stop-color="#C8C4C4"/>
</linearGradient>
</defs>
</svg>

