<svg width="30" height="26" viewBox="0 0 30 26" fill="none" xmlns="http://www.w3.org/2000/svg">
<path d="M5.98236 25.5853C4.64564 25.5853 3.52806 25.3553 2.62961 24.8951C1.75307 24.4349 1.09567 23.8432 0.657402 23.1201C0.219134 22.3969 0 21.6519 0 20.8849C0 20.2056 0.164351 19.5701 0.493051 18.9785C0.799839 18.3649 1.26002 17.8718 1.8736 17.4993C2.50908 17.1049 3.27605 16.9076 4.1745 16.9076C4.41555 16.9076 4.5799 16.9515 4.66755 17.0391C4.75521 17.1049 4.79903 17.1816 4.79903 17.2692C4.79903 17.4007 4.66755 17.5979 4.40459 17.8609C4.14163 18.1019 3.86771 18.4525 3.58284 18.9127C3.31988 19.3729 3.1884 20.0084 3.1884 20.8192C3.1884 21.6519 3.45136 22.375 3.97728 22.9886C4.5032 23.5803 5.24826 23.8761 6.21245 23.8761C6.80411 23.8761 7.35194 23.7556 7.85595 23.5145C8.38187 23.2516 8.79823 22.8023 9.10502 22.1669C9.43372 21.5095 9.59807 20.5781 9.59807 19.3729V5.89616C9.59807 4.86623 9.45563 4.165 9.17076 3.79247C8.88588 3.39803 8.32709 3.08029 7.49438 2.83924L6.73837 2.64202L7.13281 1.52443H14.3314L14.7587 2.05036L14.3314 2.64202C13.7835 3.36516 13.4 4.13213 13.1809 4.94292C12.9618 5.73181 12.8522 6.79461 12.8522 8.13132V17.3678C12.8522 19.34 12.5564 20.9287 11.9647 22.134C11.395 23.3392 10.5951 24.2158 9.5652 24.7636C8.53527 25.3114 7.34099 25.5853 5.98236 25.5853Z" fill="#091E42"/>
<path d="M17.7723 25.133L17.345 24.607L17.7723 24.0154C18.3202 23.2922 18.7037 22.5362 18.9228 21.7473C19.1419 20.9366 19.2515 19.8628 19.2515 18.5261V5.90396C19.2515 4.87403 19.1748 4.20567 19.0214 3.89889C18.8899 3.57018 18.5941 3.40583 18.1339 3.40583H16.6548C15.8878 3.40583 15.2742 3.49349 14.814 3.66879C14.3758 3.82219 14.0251 4.10706 13.7622 4.52342C13.5211 4.93977 13.291 5.54239 13.0719 6.33127L12.8747 7.08728L11.7571 6.69284V1.53224H12.3425H13.0719C13.9289 1.53224 14.7373 1.53224 16.6219 1.53224H25.1352C27.0198 1.53224 28.2689 1.30215 28.8824 0.841966L29.4741 0.414654L30 0.841966V6.69284L28.8824 7.08728L28.6852 6.33127C28.488 5.54239 28.2579 4.93977 27.9949 4.52342C27.732 4.10706 27.3814 3.82219 26.9431 3.66879C26.5048 3.49349 25.8913 3.40583 25.1024 3.40583H23.6232C23.163 3.40583 22.8562 3.57018 22.7029 3.89889C22.5714 4.20567 22.5056 4.87403 22.5056 5.90396V20.7612C22.5056 21.7693 22.6481 22.4705 22.9329 22.8649C23.2397 23.2594 23.7985 23.5771 24.6093 23.8182L25.3653 24.0154L24.9709 25.133H17.7723Z" fill="#091E42"/>
</svg>
