<svg width="96" height="89" viewBox="0 0 96 89" fill="none" xmlns="http://www.w3.org/2000/svg">
<g filter="url(#filter0_d_17_403)">
<path d="M45.9137 77.2504V61.021L62.5977 59.7709L62.3022 77.2504H45.9137Z" fill="url(#paint0_diamond_17_403)"/>
<path d="M53.4388 34.3726L53.0623 61.2114L23.9635 30.8108C24.6053 27.6178 28.4527 21.1095 38.7081 20.6211C48.9636 20.1328 52.8017 29.5853 53.4388 34.3726Z" fill="url(#paint1_radial_17_403)"/>
<path d="M80.2 57.6168L53.1805 61.0664C53.2658 56.1321 53.4939 43.755 53.4939 34.7852C53.4939 25.8154 43.5257 21.684 39.7054 20.6002C45.775 20.6263 57.9646 20.5907 66.0103 20.5279C76.04 20.4496 79.6492 30.1508 80.2 35.0112V57.6168Z" fill="url(#paint2_linear_17_403)"/>
<path d="M30.9385 22.2958C34.3207 20.9163 36.7287 20.7074 38.2417 20.6002C39.2288 20.6067 38.2086 20.5938 39.7054 20.6002M39.7054 20.6002C45.775 20.6263 57.9646 20.5907 66.0103 20.5279C76.04 20.4496 79.6492 30.1508 80.2 35.0112V57.6168L53.1805 61.0664C53.2658 56.1321 53.4939 43.755 53.4939 34.7852C53.4939 25.8154 43.5257 21.684 39.7054 20.6002Z" stroke="url(#paint3_linear_17_403)" stroke-width="0.5"/>
<g filter="url(#filter1_d_17_403)">
<path d="M58.8173 47.3709V19.166H71.4595V25.5503H65.0318V47.3709C65.0515 48.4066 64.4577 50.4781 61.9246 50.4781C59.3914 50.4781 58.7976 48.4066 58.8173 47.3709Z" fill="url(#paint4_linear_17_403)"/>
</g>
<path d="M29.9344 22.732C31.4598 22.2557 34.5025 20.4894 39.0884 20.6172C42.9355 20.7244 53.1102 26.8705 53.3094 33.7407C53.5857 39.2007 52.9874 53.9844 53.0492 61.2599" stroke="#426080" stroke-width="0.5"/>
<path d="M43.7485 34.8746L52.991 61.1271L45.9 61.0299H38.4769H23.6306L16.6528 35.4614C15.6883 31.6675 14.0848 24.6344 21.404 22.1281C22.9848 21.5868 24.8133 21.2745 26.9229 21.2745C28.9233 21.2745 30.6711 21.5553 32.1945 22.0459C39.7158 24.4682 42.3802 30.7143 43.7485 34.8746Z" fill="url(#paint5_linear_17_403)" stroke="url(#paint6_linear_17_403)" stroke-width="0.5"/>
<g filter="url(#filter2_d_17_403)">
<path d="M29.0291 20.6713C29.2443 20.6318 29.6199 22.9485 29.4042 22.9835L28.9301 23.06L19.2741 24.6262C18.8182 24.7001 18.4432 22.3878 18.8991 22.3139C19.651 22.1921 24.3792 21.4251 27.9199 20.8508L28.5551 20.7478C29.1462 20.6519 28.558 20.7477 29.0291 20.6713Z" fill="url(#paint7_linear_17_403)"/>
<path d="M29.4041 22.9834C29.6198 22.9485 29.2476 20.6523 29.0324 20.6917C28.5612 20.7681 29.1494 20.6723 28.5584 20.7682C27.6644 20.9132 27.9076 23.2257 28.9301 23.0599L29.4041 22.9834Z" fill="url(#paint8_linear_17_403)"/>
</g>
</g>
<defs>
<filter id="filter0_d_17_403" x="0.739348" y="0.65264" width="94.5213" height="87.7058" filterUnits="userSpaceOnUse" color-interpolation-filters="sRGB">
<feFlood flood-opacity="0" result="BackgroundImageFix"/>
<feColorMatrix in="SourceAlpha" type="matrix" values="0 0 0 0 0 0 0 0 0 0 0 0 0 0 0 0 0 0 127 0" result="hardAlpha"/>
<feOffset dy="-3.70268"/>
<feGaussianBlur stdDeviation="7.40535"/>
<feComposite in2="hardAlpha" operator="out"/>
<feColorMatrix type="matrix" values="0 0 0 0 0 0 0 0 0 0 0 0 0 0 0 0 0 0 0.25 0"/>
<feBlend mode="normal" in2="BackgroundImageFix" result="effect1_dropShadow_17_403"/>
<feBlend mode="normal" in="SourceGraphic" in2="effect1_dropShadow_17_403" result="shape"/>
</filter>
<filter id="filter1_d_17_403" x="52.8518" y="16.9037" width="24.5727" height="43.2421" filterUnits="userSpaceOnUse" color-interpolation-filters="sRGB">
<feFlood flood-opacity="0" result="BackgroundImageFix"/>
<feColorMatrix in="SourceAlpha" type="matrix" values="0 0 0 0 0 0 0 0 0 0 0 0 0 0 0 0 0 0 127 0" result="hardAlpha"/>
<feOffset dy="3.70268"/>
<feGaussianBlur stdDeviation="2.98249"/>
<feComposite in2="hardAlpha" operator="out"/>
<feColorMatrix type="matrix" values="0 0 0 0 0 0 0 0 0 0 0 0 0 0 0 0 0 0 0.37 0"/>
<feBlend mode="normal" in2="BackgroundImageFix" result="effect1_dropShadow_17_403"/>
<feBlend mode="normal" in="SourceGraphic" in2="effect1_dropShadow_17_403" result="shape"/>
</filter>
<filter id="filter2_d_17_403" x="14.9894" y="20.6708" width="18.1824" height="11.3625" filterUnits="userSpaceOnUse" color-interpolation-filters="sRGB">
<feFlood flood-opacity="0" result="BackgroundImageFix"/>
<feColorMatrix in="SourceAlpha" type="matrix" values="0 0 0 0 0 0 0 0 0 0 0 0 0 0 0 0 0 0 127 0" result="hardAlpha"/>
<feOffset dy="3.70268"/>
<feGaussianBlur stdDeviation="1.85134"/>
<feComposite in2="hardAlpha" operator="out"/>
<feColorMatrix type="matrix" values="0 0 0 0 0 0 0 0 0 0 0 0 0 0 0 0 0 0 0.16 0"/>
<feBlend mode="normal" in2="BackgroundImageFix" result="effect1_dropShadow_17_403"/>
<feBlend mode="normal" in="SourceGraphic" in2="effect1_dropShadow_17_403" result="shape"/>
</filter>
<radialGradient id="paint0_diamond_17_403" cx="0" cy="0" r="1" gradientUnits="userSpaceOnUse" gradientTransform="translate(54.2557 75.4979) rotate(90) scale(23.0092 21.962)">
<stop offset="0.247625" stop-color="#A7763D"/>
<stop offset="1" stop-color="#412E18"/>
</radialGradient>
<radialGradient id="paint1_radial_17_403" cx="0" cy="0" r="1" gradientUnits="userSpaceOnUse" gradientTransform="translate(24.4005 50.1066) rotate(-26.0655) scale(36.5559 26.6531)">
<stop stop-color="#327BC9"/>
<stop offset="0.935" stop-color="#0C1F33"/>
</radialGradient>
<linearGradient id="paint2_linear_17_403" x1="55.5693" y1="17.6561" x2="55.5693" y2="60.9918" gradientUnits="userSpaceOnUse">
<stop stop-color="#4993E2"/>
<stop offset="0.179651" stop-color="#A8BFD7"/>
<stop offset="1" stop-color="#4993E2"/>
</linearGradient>
<linearGradient id="paint3_linear_17_403" x1="55.5693" y1="17.6536" x2="55.5693" y2="61.0263" gradientUnits="userSpaceOnUse">
<stop stop-color="#3976B7"/>
<stop offset="0.134764" stop-color="#A8BFD7"/>
<stop offset="1" stop-color="#3976B7"/>
</linearGradient>
<linearGradient id="paint4_linear_17_403" x1="65.1382" y1="19.166" x2="65.1382" y2="50.4781" gradientUnits="userSpaceOnUse">
<stop offset="0.618008" stop-color="#A50505"/>
<stop offset="1" stop-color="#6A0F0F"/>
</linearGradient>
<linearGradient id="paint5_linear_17_403" x1="23.8061" y1="21.2745" x2="39.7469" y2="61.0299" gradientUnits="userSpaceOnUse">
<stop stop-color="#7BAFE6"/>
<stop offset="1" stop-color="#4993E2"/>
</linearGradient>
<linearGradient id="paint6_linear_17_403" x1="39.7965" y1="22.3948" x2="23.1952" y2="61.1284" gradientUnits="userSpaceOnUse">
<stop stop-color="#3976B7"/>
<stop offset="0.175" stop-color="#A8BFD7"/>
<stop offset="1" stop-color="#3976B7"/>
</linearGradient>
<linearGradient id="paint7_linear_17_403" x1="24.5802" y1="21.4078" x2="24.9311" y2="23.7247" gradientUnits="userSpaceOnUse">
<stop stop-color="#D9D9D9"/>
<stop offset="1" stop-color="#454545"/>
</linearGradient>
<linearGradient id="paint8_linear_17_403" x1="28.5165" y1="20.775" x2="28.8883" y2="23.0671" gradientUnits="userSpaceOnUse">
<stop stop-color="#D9D9D9"/>
<stop offset="1" stop-color="#A8A8A8"/>
</linearGradient>
</defs>
</svg>
