<svg width="158" height="177" viewBox="0 0 158 177" fill="none" xmlns="http://www.w3.org/2000/svg">
<g filter="url(#filter0_d_16_795)">
<rect width="139.179" height="158.532" rx="11.3475" transform="matrix(0.998449 -0.0556736 0.054286 0.998525 5.33188 15.028)" fill="#F7F7F7"/>
<rect x="0.746618" y="0.668687" width="137.76" height="157.113" rx="10.6383" transform="matrix(0.998449 -0.0556736 0.054286 0.998525 5.29674 15.0705)" stroke="url(#paint0_linear_16_795)" stroke-width="1.41844"/>
</g>
<path d="M26.4804 36.4092L123.849 30.9799" stroke="#C9C5C5" stroke-width="2.83687" stroke-linecap="round"/>
<path d="M27.0964 47.7399L124.465 42.3106" stroke="#C9C5C5" stroke-width="2.83687" stroke-linecap="round"/>
<path d="M27.7125 59.0707L125.081 53.6414" stroke="#C9C5C5" stroke-width="2.83687" stroke-linecap="round"/>
<path d="M28.3285 70.4014L125.697 64.9721" stroke="#C9C5C5" stroke-width="2.83687" stroke-linecap="round"/>
<path d="M28.9445 81.7322L126.313 76.3029" stroke="#C9C5C5" stroke-width="2.83687" stroke-linecap="round"/>
<path d="M29.5605 93.0629L126.929 87.6336" stroke="#C9C5C5" stroke-width="2.83687" stroke-linecap="round"/>
<path d="M30.1766 104.394L127.545 98.9644" stroke="#C9C5C5" stroke-width="2.83687" stroke-linecap="round"/>
<path d="M30.7925 115.724L128.161 110.295" stroke="#C9C5C5" stroke-width="2.83687" stroke-linecap="round"/>
<path d="M31.4085 127.055L128.777 121.626" stroke="#C9C5C5" stroke-width="2.83687" stroke-linecap="round"/>
<path d="M32.0245 138.386L129.393 132.957" stroke="#C9C5C5" stroke-width="2.83687" stroke-linecap="round"/>
<path d="M32.6405 149.717L130.009 144.287" stroke="#C9C5C5" stroke-width="2.83687" stroke-linecap="round"/>
<defs>
<filter id="filter0_d_16_795" x="0.257106" y="0.801012" width="157.718" height="176.166" filterUnits="userSpaceOnUse" color-interpolation-filters="sRGB">
<feFlood flood-opacity="0" result="BackgroundImageFix"/>
<feColorMatrix in="SourceAlpha" type="matrix" values="0 0 0 0 0 0 0 0 0 0 0 0 0 0 0 0 0 0 127 0" result="hardAlpha"/>
<feOffset dy="-1.41844"/>
<feGaussianBlur stdDeviation="2.83687"/>
<feComposite in2="hardAlpha" operator="out"/>
<feColorMatrix type="matrix" values="0 0 0 0 0 0 0 0 0 0 0 0 0 0 0 0 0 0 0.25 0"/>
<feBlend mode="normal" in2="BackgroundImageFix" result="effect1_dropShadow_16_795"/>
<feBlend mode="normal" in="SourceGraphic" in2="effect1_dropShadow_16_795" result="shape"/>
</filter>
<linearGradient id="paint0_linear_16_795" x1="69.5893" y1="0" x2="69.5893" y2="158.532" gradientUnits="userSpaceOnUse">
<stop offset="0.514551" stop-color="#FDFDFD"/>
<stop offset="1" stop-color="#C8C4C4"/>
</linearGradient>
</defs>
</svg>
